<svg height="512pt" viewBox="-16 0 511 512" width="512pt" fill="#9395af" xmlns="http://www.w3.org/2000/svg"><path d="m229.558594 297.28125-61.148438-30.574219-35.78125 44.46875v25.824219h247.742188v-87.855469l-66.375-50.816406zm0 0"/><path d="m414.046875 0h-380.09375v81h-33.453125v30h33.453125v76.667969h-33.453125v30h33.453125v76.667969h-33.453125v30h33.453125v76.664062h-33.453125v30h33.453125v81h380.09375c35.84375 0 65-29.160156 65-65v-382c0-35.839844-29.15625-65-65-65zm-311.417969 367v-286h307.742188v286zm233.871094 55.332031v30h-160v-30zm0 0"/><path d="m160.195312 229.058594 61.78125 30.890625 87.664063-102.734375 70.730469 54.148437v-100.363281h-247.742188v152.320312zm0 0"/></svg>