<svg id="Capa_1" enable-background="new 0 0 512 512" height="512" viewBox="0 0 512 512" width="512" fill="#9395af" xmlns="http://www.w3.org/2000/svg"><g><path d="m391 452h60v-452h-330v61h270z"/><path d="m166 512h195v-421h-300v316h105zm45-316h105v30h-105zm0 75h105v30h-105zm0 75h105v30h-105zm-94.395-175.605 19.395 19.394 34.395-34.395 21.211 21.211-55.606 55.606-40.605-40.605zm0 75 19.395 19.394 34.395-34.395 21.211 21.211-55.606 55.606-40.605-40.605zm19.395 136.816-40.605-40.605 21.211-21.211 19.394 19.394 34.395-34.395 21.211 21.211z"/><path d="m136 437h-51.211l51.211 51.211z"/></g></svg>